<?xml version="1.0" encoding="UTF-8"?>
<svg id="Layer_1" data-name="Layer 1" xmlns="http://www.w3.org/2000/svg" xmlns:xlink="http://www.w3.org/1999/xlink" viewBox="0 0 256 256">
  <defs>
    <style>
      .cls-1 {
        fill: #fff;
      }

      .cls-2 {
        clip-path: url(#clippath-1);
      }

      .cls-3 {
        fill: #310799;
      }

      .cls-4 {
        fill: none;
      }

      .cls-5 {
        fill: #bce700;
      }
    </style>
    <clipPath id="clippath-1">
      <circle class="cls-4" cx="128" cy="128" r="128"/>
    </clipPath>
  </defs>
  <circle class="cls-1" cx="128" cy="128" r="128"/>
  <g class="cls-2">
    <g>
      <path class="cls-5" d="m180.72,81.38s18.47-5.95,32.06,9.62c13.59,15.57,9.31,32.52,3.97,40.31s-23.36,14.81-27.79,23.82c-4.43,9.01-3.36,31.3-1.22,34.05-9.62-4.12-28.09-12.67-28.09-12.67,0,0-2.14-10.69-2.14-14.5v-6.2s6.57-6.32,8.24-10.29c1.68-3.97,5.95-23.97,5.95-23.97,0,0,4.28.76,5.95-1.22s4.43-7.48,4.58-11.91c.15-4.43-.61-13.44-2.44-14.05s-1.53-.46-1.53-.46l2.44-12.52Z"/>
      <path class="cls-5" d="m61.17,79.85s.76,6.72,9.01,7.02c8.24.31,13.74-.31,18.17-7.94,4.43-7.63,3.05-32.22,9.62-39.55-8.4,4.28-10.73,16.19-14.66,25.8-4.12,10.08-9.01,16.49-13.74,16.49s-8.4-1.83-8.4-1.83Z"/>
      <path class="cls-5" d="m102.09,158.48l-.46,17.71s-6.72,5.65-16.87,11.22c-10.15,5.57-32.29,13.05-32.29,13.05,0,0-2.9-25.65,14.35-37.56,17.25-11.91,23.36-14.05,25.65-14.66,3.05,4.12,9.62,10.23,9.62,10.23Z"/>
      <g>
        <path class="cls-3" d="m139.73,89.55c.23.94,4.73,0,9.16-1.83,4.43-1.83,9.31-5.5,12.06-5.5,1.68,0,6.26,2.6,8.24,3.51.69.32-7.18-5.34-8.86-5.5-3.36-.31-21.53,5.5-20.61,9.31Z"/>
        <path class="cls-3" d="m152.7,95.04c3.05-.15,10.38,3.97,11.15,4.58s.15.92-1.07.46-5.34-2.14-5.34-2.14c0,0,0,4.12-4.58,4.12s-4.12-3.66-4.12-3.66c0,0-4.43,2.14-5.19,2.29s3.52-5.37,9.16-5.65Z"/>
        <path class="cls-3" d="m107.69,95.04c-3.05-.15-10.38,3.97-11.15,4.58s-.15.92,1.07.46,5.34-2.14,5.34-2.14c0,0,0,4.12,4.58,4.12s4.12-3.66,4.12-3.66c0,0,4.43,2.14,5.19,2.29s-3.52-5.37-9.16-5.65Z"/>
        <path class="cls-3" d="m130.14,130.16c-2.44,0-7.15-2.23-8.09-2.9-1.07-.76-.27-1.21.61-.92,1.37.46,2.44,1.22,7.48,1.22h.12c5.04,0,6.11-.76,7.48-1.22.88-.29,1.68.15.61.92-.95.68-5.65,2.9-8.09,2.9h-.12Z"/>
        <path class="cls-3" d="m130.14,151.23s-1.37,0-2.14-.61-.61-1.07-.15-1.22,1.53.31,2.29.31h.12c.76,0,1.83-.46,2.29-.31s.61.61-.15,1.22-2.14.61-2.14.61h-.12Z"/>
        <path class="cls-3" d="m129.98,144.51c-.92,0-1.37-.31-3.97-.31-2.14,0-2.29.46-3.21.46s-5.8-1.53-6.57-1.83-.15-.61.61-.46,4.28.76,6.57.76c2.29,0,4.73-.15,6.57-.15h.43c1.83,0,4.28.15,6.57.15s5.8-.61,6.57-.76,1.37.15.61.46-5.65,1.83-6.57,1.83-1.07-.46-3.21-.46c-2.6,0-3.05.31-3.97.31h-.43Z"/>
        <path class="cls-3" d="m175.91,92.6c-.99.19-3.82-.76-7.18-1.68-3.32-.91-11.49-1.83-18.47-.76-7.02,1.07-12.67,2.9-14.35,3.36-1.67.45-3.18.61-5.45.61-2.28,0-4.3-.15-5.98-.61s-7.33-2.29-14.35-3.36c-6.98-1.06-15.15-.14-18.47.76-3.36.92-6.19,1.87-7.18,1.68-.9-.18-.31,3.97-.15,4.28.22.43,1.83,0,2.29.31s1.83,5.5,2.75,7.79c.92,2.29,1.68,4.28,2.75,5.5s5.8,3.82,13.74,3.82,12.06-1.53,12.83-1.98,3.51-5.34,4.43-7.63,2.14-6.72,3.21-7.18c1-.43,3.76-.46,4.13-.46.31,0,2.63.03,3.63.46,1.07.46,2.29,4.89,3.21,7.18.92,2.29,3.66,7.18,4.43,7.63s4.89,1.98,12.83,1.98,12.67-2.6,13.74-3.82,1.83-3.21,2.75-5.5,2.29-7.48,2.75-7.79,2.07.13,2.29-.31c.15-.31.75-4.45-.15-4.28Zm-54.02,11.3c-.92,3.36-2.9,6.72-4.12,7.48s-4.28,1.68-11.15,1.68-12.52-2.29-13.89-3.66c-1.07-1.07-2.29-5.04-3.36-9.01s-.92-4.89.61-6.72c1.53-1.83,11.6-2.75,14.96-2.6,5.34.24,14.2,2.29,16.64,3.66,2.44,1.37,1.22,5.8.31,9.16Zm49.14-3.51c-1.07,3.97-2.29,7.94-3.36,9.01-1.37,1.37-7.33,3.66-13.89,3.66s-9.92-.92-11.15-1.68c-1.22-.76-3.21-4.12-4.12-7.48-.92-3.36-2.14-7.79.31-9.16,2.44-1.37,11.3-3.42,16.64-3.66,3.36-.15,13.44.76,14.96,2.6,1.53,1.83,1.68,2.75.61,6.72Z"/>
        <path class="cls-3" d="m156.52,168.94s.92,6.87,2.75,9.01c1.83,2.14,24.58,14.81,30.84,17.41,6.26,2.6,18.78,6.11,22.75,9.77,3.97,3.66,7.94,9.16,10.08,14.35,2.14,5.19,5.19,15.12,5.19,15.12,0,0-1.07-11.6-2.44-15.73-1.37-4.12-6.87-14.35-12.52-17.41s-23.82-9.47-30.23-12.52c-6.41-3.05-19.39-8.7-21.68-11.45-2.29-2.75-2.75-12.98-2.9-16.03-.15-3.05-.15-6.26-.15-6.26,0,0-11.91,10.38-15.42,11.76-3.51,1.37-9.77,3.51-12.52,3.36-2.75-.15-12.21-2.75-13.89-4.12s-12.52-9.77-12.52-9.77c0,0,11.45,14.35,17.71,18.02,6.26,3.66,13.28,7.94,22.6,4.12,9.31-3.82,12.37-9.62,12.37-9.62Z"/>
        <path class="cls-3" d="m85.98,98.55l-1.22.31s.61,7.33.61,11.76,1.98,13.59,2.9,17.1c.92,3.51,1.83,5.95,3.05,10.54,1.22,4.58,1.53,6.41,3.36,8.86s5.95,7.63,7.94,9.31,11.15,9.16,14.2,10.69c3.05,1.53,9.92,4.12,13.59,4.12s11.15-2.14,14.05-3.97c2.9-1.83,13.13-10.54,15.42-12.67s5.95-7.02,7.18-9.31,2.14-7.18,2.75-9.77c.61-2.6,2.6-9.31,3.21-11.76s1.53-5.95,1.83-8.4,1.55-21.21,1.55-21.21h-1.86s-.15,5.18-.92,11.59-2.14,13.28-2.9,16.95c-.76,3.66-1.83,8.4-2.44,11.6s-2.29,8.4-4.12,11.6c-1.83,3.21-5.5,6.87-7.18,8.55-1.68,1.68-5.65,4.89-7.63,6.72-1.98,1.83-5.8,4.12-8.09,5.19s-7.63,2.75-10.69,2.75-9.16-1.83-11.45-2.9c-2.29-1.07-6.11-3.51-9.92-6.87-3.82-3.36-6.57-5.5-8.7-8.09-2.14-2.6-4.43-5.65-5.34-7.79-.92-2.14-2.29-6.57-3.21-10.54-.92-3.97-1.83-9.47-2.9-13.13s-3.05-21.22-3.05-21.22Z"/>
        <path class="cls-3" d="m176.22,93.97s1.53-1.07,3.21-.61,3.21,2.29,3.66,8.55c.46,6.26-.61,9.01-1.07,11.15-.46,2.14-.61,4.12-1.53,5.8-.92,1.68-3.66,3.66-5.65,3.97-1.98.31-2.6-.31-2.6-.31l.92-2.14s1.07.31,2.14,0c1.07-.31,2.6-1.98,3.66-4.12,1.07-2.14,1.53-4.43,1.83-5.95s.53-8.61.15-11.15c-.46-3.05-1.68-3.97-4.73-5.19Z"/>
        <path class="cls-3" d="m175.91,116.88c.92-.61,2.6.61,2.9,3.05.31,2.44-.61,4.43-2.44,5.04-1.89.63-.48-.99-.15-1.53.46-.76,1.07-3.97-.31-4.89-1.17-.78,0-1.68,0-1.68Z"/>
        <path class="cls-3" d="m172.86,124.34s-.17,1.15.76,1.85c1.22.92,3.36.76,4.28.31s1.33.06.92.61c-.46.61-1.37,1.53-3.36,1.53-2.45,0-3.21-.61-3.82-1.53-.72-1.09,1.22-2.77,1.22-2.77Z"/>
        <path class="cls-3" d="m182.33,190.16s.92,6.87,1.68,7.79c1.07-.92.31-7.33.31-7.33l-1.98-.46Z"/>
        <path class="cls-3" d="m183.09,205.58s0,9.01-.76,13.28c-.76,4.28-1.37,4.73-1.37,4.73l-2.44.61s1.98-4.89,2.6-7.63,1.98-10.99,1.98-10.99Z"/>
        <path class="cls-3" d="m188.59,193.22s.15,8.24.76,13.89c.61,5.65,1.83,9.31,1.83,9.31l-2.6,2.6s-1.53-6.57-1.83-12.83c-.31-6.26.46-13.74.46-13.74l1.37.76Z"/>
        <path class="cls-3" d="m193.62,195.51s2.29,2.14,2.9,5.34c.61,3.21,0,9.01-3.66,13.28-3.66,4.28-12.21,9.16-16.8,10.08-4.58.92-19.24,2.14-19.24,2.14,0,0,7.79,1.22,14.05.31,6.26-.92,12.98-2.6,19.09-7.33,6.11-4.73,9.77-11.76,9.92-15.73s-1.98-7.48-1.98-7.48l-4.28-.61Z"/>
        <path class="cls-3" d="m102.32,158.56s.92,16.64.31,18.02-8.4,7.02-11.45,8.7c-3.05,1.68-8.24,4.89-13.59,7.18-5.34,2.29-16.18,5.8-21.38,7.94s-8.24,3.66-11.15,7.02c-2.9,3.36-8.09,12.06-9.77,17.41-1.68,5.34-3.05,10.54-3.05,10.54,0,0,.31-9.77,2.6-16.18,2.29-6.41,6.11-12.67,10.23-15.88,4.12-3.21,20.15-9.47,26.72-11.91,6.57-2.44,14.05-5.04,18.02-7.63,3.97-2.6,9.77-6.11,10.54-7.33.76-1.22,1.98-17.86,1.98-17.86Z"/>
        <path class="cls-3" d="m86.13,186.96s6.87,14.5,20.15,23.36c13.28,8.86,20,11.15,20,11.15,0,0-8.86-2.75-13.74-5.5-4.89-2.75-11.91-7.63-16.64-12.52-4.73-4.89-12.98-15.42-12.98-15.42l3.21-1.07Z"/>
        <path class="cls-3" d="m174.54,111.99s1.37-.15,2.29-1.68.92-4.73.61-4.73-1.37,2.6-2.44,2.75-.46,3.66-.46,3.66Z"/>
        <path class="cls-3" d="m77.89,99.93s1.37,10.38,3.21,14.66,3.37,6.1,5.58,5.95.52,2.56.52,2.56c0,0-2.28.04-4.73-1.64s-3.97-4.89-4.58-9.01c-.61-4.12,0-12.52,0-12.52Z"/>
        <path class="cls-3" d="m83.84,105.73l.46,4.12s-1.98-.61-1.98-2.6,1.53-1.53,1.53-1.53Z"/>
        <path class="cls-3" d="m64.91,90.61s5.8,6.26,12.67,5.65c6.87-.61,18.02-4.73,25.65-9.92,7.63-5.19,16.18-10.99,27.03-11.6,10.84-.61,17.25-1.98,23.21-5.8,5.95-3.82,8.7-7.79,9.31-7.79s-3.97,7.33-10.08,11.15c-6.11,3.82-16.8,5.04-25.35,5.5-8.55.46-17.41,6.87-21.68,9.77-4.28,2.9-18.93,10.99-26.11,10.99s-11.91-1.98-14.66-7.94Z"/>
        <path class="cls-3" d="m144.31,65.27s9.62-7.48,11.91-11.45,3.97-10.84,4.58-10.99.46,3.66-.76,7.18c-1.22,3.51-3.36,7.33-7.33,10.38-3.97,3.05-8.4,4.89-8.4,4.89Z"/>
        <path class="cls-3" d="m153.16,76.26s6.87-3.21,9.62-5.8c2.75-2.6,6.11-7.63,7.18-7.79s.31,2.44-1.68,5.04c-1.98,2.6-6.87,6.11-9.01,7.02-2.14.92-6.11,1.53-6.11,1.53Z"/>
        <path class="cls-3" d="m171.33,70.46s2.84-5.35,4.12-7.79c1.53-2.9.31-10.08.92-10.38s1.83,1.83,1.68,6.41-1.37,6.26-2.44,7.79-4.28,3.97-4.28,3.97Z"/>
        <path class="cls-3" d="m178.51,67.86c1.06-.13,0,7.94-.46,12.37s-2.29,12.67-2.75,12.98.15-9.16.46-12.06c.31-2.9,1.53-13.13,2.75-13.28Z"/>
        <path class="cls-3" d="m173.93,67.86s-.15,5.95-.46,8.4c-.31,2.44-.61,4.73-.46,5.5s1.37,2.29,1.22,3.82c-.15,1.53-.31,4.28-.31,4.28,0,0-1.37-1.83-1.83-4.12s-1.37-3.51-1.22-4.89,2.29-12.67,2.29-12.67l.76-.31Z"/>
        <path class="cls-3" d="m113.25,83.86l-4.26,2.66c.85.44,1.69.84,2.52,1.19,4.43,1.83,8.94,2.77,9.16,1.83.42-1.74-3.12-3.89-7.42-5.69Z"/>
        <path class="cls-3" d="m173.16,40.99c.63-1.26,5.65,3.21,7.63,8.55,1.98,5.34,1.68,7.94,1.53,9.62s-1.37,7.33-1.37,7.33c0,0,.46-6.87-.46-10.08s-3.21-8.09-5.04-10.84c-1.83-2.75-2.75-3.66-2.29-4.58Z"/>
        <path class="cls-3" d="m60.48,78.86c.92-.31,2.75,2.44,5.5,4.58s6.03,2.98,8.47,3.28,8.7-1.68,8.7-1.68c0,0-5.11,3.44-10.61,2.67s-8.4-2.6-10.54-5.04-1.53-3.82-1.53-3.82Z"/>
        <path class="cls-3" d="m118.2,21.45s10.54-2.6,23.97,1.53c13.44,4.12,24.12,10.23,26.11,12.67s.31,1.68-1.68.46-11.91-6.87-16.95-8.86c-5.04-1.98-11.91-4.73-17.86-5.34-5.95-.61-13.59-.46-13.59-.46Z"/>
      </g>
      <path class="cls-5" d="m78.81,138.56c-1.52-.61-2.25-1.9-2.59-3.05,1.66-6.53-.37-15.14-3.13-18.86-3.97-5.34-14.23-14.6-24.43-12.67-5.65,1.07-12.37,1.07-18.32,10.23-5.95,9.16-.61,25.65,10.84,31.76,11.45,6.11,22.75,1.22,30.54-3.66.4-.25.78-.54,1.13-.84.93.47,2,.86,3.07.92,2.9.15,6.11-.92,6.26-1.98s-.31-.61-3.36-1.83Z"/>
      <path class="cls-1" d="m52.39,112.6c-5.5-1.37-6.41,5.5-4.73,7.79,1.68,2.29,5.65,2.29,7.33-.46s.72-6.5-2.6-7.33Zm0,7.33c-1.22.61-3.82.15-3.36-2.14s1.68-2.9,3.36-2.14c1.55.71,1.22,3.66,0,4.28Z"/>
      <path class="cls-1" d="m64.61,118.71c-6.72-3.21-8.4,6.72-7.02,9.47,1.37,2.75,5.95,1.98,7.94,0s2.26-7.95-.92-9.47Zm-2.6,7.94c-1.53.92-3.51.61-3.36-2.14s1.98-5.19,4.12-3.66c1.42,1.01.76,4.89-.76,5.8Z"/>
      <path class="cls-1" d="m71.17,119.17c1.04.39,1.37,3.97,0,7.94s-4.12,7.33-4.12,7.33c0,0-.46-3.05.46-5.04.92-1.98,2.29-5.95,2.29-7.33s.15-3.36,1.37-2.9Z"/>
      <path class="cls-1" d="m64.76,136.88c.87.44.92,2.29,0,2.9s-2.6.31-2.29-1.37,1.37-1.98,2.29-1.53Z"/>
      <path class="cls-1" d="m34.68,118.56c.78,0,1.07,1.83,1.53,5.19.46,3.36,1.68,9.77,4.43,11.15s7.94.76,7.02-4.28-7.18-4.89-9.47-4.43c1.37-1.53,3.21-4.28,2.29-5.8s-1.98-1.53-3.21-1.22-1.37-1.53.15-1.98,4.12-.31,5.04,1.98c.92,2.29,0,4.89,0,4.89,0,0,5.8-1.53,8.4,3.97,2.6,5.5-1.83,10.99-4.89,10.99s-6.72.15-10.08-6.72c-3.36-6.87-2.9-13.74-1.22-13.74Z"/>
    </g>
  </g>
</svg>